<svg width="33" height="32" viewBox="0 0 33 32" fill="none" xmlns="http://www.w3.org/2000/svg">
<path d="M26.5 3.25H9.5C8.50544 3.25 7.55161 3.64509 6.84835 4.34835C6.14509 5.05161 5.75 6.00544 5.75 7V28C5.75 28.1989 5.82902 28.3897 5.96967 28.5303C6.11032 28.671 6.30109 28.75 6.5 28.75H24.5C24.6989 28.75 24.8897 28.671 25.0303 28.5303C25.171 28.3897 25.25 28.1989 25.25 28C25.25 27.8011 25.171 27.6103 25.0303 27.4697C24.8897 27.329 24.6989 27.25 24.5 27.25H7.25V27C7.25 26.4033 7.48705 25.831 7.90901 25.409C8.33097 24.9871 8.90326 24.75 9.5 24.75H26.5C26.6989 24.75 26.8897 24.671 27.0303 24.5303C27.171 24.3897 27.25 24.1989 27.25 24V4C27.25 3.80109 27.171 3.61032 27.0303 3.46967C26.8897 3.32902 26.6989 3.25 26.5 3.25ZM25.75 23.25H9.5C8.68842 23.2488 7.89856 23.5121 7.25 24V7C7.25 6.40326 7.48705 5.83097 7.90901 5.40901C8.33097 4.98705 8.90326 4.75 9.5 4.75H25.75V23.25Z" fill="#FA5A2A"/>
</svg>
