<svg width="32" height="32" viewBox="0 0 32 32" fill="none" xmlns="http://www.w3.org/2000/svg">
<path d="M21.3333 29.3333C18.8187 29.3333 17.5627 29.3333 16.7813 28.552C16 27.7707 16 26.5147 16 24V8.00001C16 5.48534 16 4.22934 16.7813 3.44801C17.5627 2.66667 18.8187 2.66667 21.3333 2.66667H24C26.5147 2.66667 27.7707 2.66667 28.552 3.44801C29.3333 4.22934 29.3333 5.48534 29.3333 8.00001V24C29.3333 26.5147 29.3333 27.7707 28.552 28.552C27.7707 29.3333 26.5147 29.3333 24 29.3333H21.3333Z" stroke="#FA5A2A"/>
<path d="M16 16H18.6667M16 8H18.6667M16 24H18.6667M16 20H20M16 12H20" stroke="#FA5A2A" stroke-linecap="round"/>
<path d="M2.66667 7.73334V6.46667C2.66667 4.36801 4.45734 2.66667 6.66667 2.66667C8.87601 2.66667 10.6667 4.36801 10.6667 6.46667V7.73334M2.66667 7.73334C2.66667 7.73334 4.16667 9.00001 6.66667 9.00001C9.16667 9.00001 10.6667 7.73334 10.6667 7.73334M2.66667 7.73334V20.712C2.66667 21.5 2.66667 21.8947 2.71734 22.2813C2.77689 22.74 2.88801 23.1867 3.05067 23.6213C3.18667 23.988 3.37201 24.3413 3.74401 25.0467L5.31734 28.036M10.6667 7.73334V20.712C10.6667 21.5 10.6667 21.8947 10.616 22.2813C10.5573 22.74 10.4462 23.1867 10.2827 23.6213C10.1467 23.988 9.96134 24.3413 9.58934 25.0467L8.01601 28.036M5.31734 28.036L5.70134 28.7667C5.79512 28.9403 5.93468 29.0849 6.10486 29.1848C6.27505 29.2847 6.46935 29.3361 6.66667 29.3333C6.86399 29.3361 7.0583 29.2847 7.22848 29.1848C7.39867 29.0849 7.53823 28.9403 7.63201 28.7667L8.01601 28.036M5.31734 28.036H8.01601" stroke="#FA5A2A"/>
</svg>
