<svg width="32" height="32" viewBox="0 0 32 32" fill="none" xmlns="http://www.w3.org/2000/svg">
<path d="M28.8825 16.94C28.5858 15.8297 28.0293 14.8058 27.259 13.9529C26.4888 13.0999 25.5267 12.4423 24.4523 12.0343C23.3779 11.6262 22.2219 11.4795 21.0796 11.6061C19.9373 11.7327 18.8415 12.1291 17.8825 12.7625C17.7963 12.7112 17.7063 12.6625 17.615 12.6187L19.7225 4.20375C19.7607 4.05142 19.7501 3.89095 19.6923 3.74495C19.6344 3.59895 19.5322 3.4748 19.4 3.39C18.5709 2.86104 17.6428 2.5063 16.6722 2.34738C15.7017 2.18845 14.7089 2.22865 13.7544 2.46554C12.7998 2.70243 11.9035 3.13106 11.1198 3.72533C10.3362 4.31961 9.68167 5.06711 9.19606 5.92235C8.71046 6.77759 8.40394 7.7227 8.29515 8.70015C8.18636 9.67761 8.27759 10.667 8.56327 11.6081C8.84895 12.5491 9.32312 13.4223 9.95692 14.1743C10.5907 14.9263 11.3709 15.5415 12.25 15.9825V16C12.25 16.0962 12.25 16.1925 12.2625 16.2875L3.92125 18.67C3.7697 18.7126 3.63539 18.8018 3.53735 18.9249C3.43931 19.0481 3.38251 19.199 3.375 19.3563C3.33822 20.335 3.50015 21.3111 3.85102 22.2256C4.2019 23.1401 4.73443 23.974 5.41648 24.677C6.09853 25.3799 6.91595 25.9374 7.81941 26.3158C8.72286 26.6941 9.69361 26.8855 10.6731 26.8783C11.6525 26.8711 12.6204 26.6655 13.5182 26.274C14.416 25.8824 15.2251 25.313 15.8968 24.6001C16.5685 23.8872 17.0887 23.0456 17.4261 22.126C17.7635 21.2065 17.9111 20.2281 17.86 19.25C17.9475 19.2 18.0338 19.1463 18.1175 19.0888L24.3513 25.125C24.4645 25.2342 24.6092 25.305 24.7648 25.3274C24.9205 25.3498 25.0793 25.3228 25.2188 25.25C26.6854 24.4891 27.8481 23.2501 28.5144 21.7382C29.1807 20.2262 29.3105 18.5321 28.8825 16.9363V16.94ZM13.75 16C13.75 15.555 13.882 15.12 14.1292 14.75C14.3764 14.38 14.7278 14.0916 15.139 13.9213C15.5501 13.751 16.0025 13.7064 16.439 13.7932C16.8754 13.88 17.2763 14.0943 17.591 14.409C17.9057 14.7237 18.12 15.1246 18.2068 15.561C18.2936 15.9975 18.249 16.4499 18.0787 16.861C17.9084 17.2722 17.62 17.6236 17.25 17.8708C16.88 18.118 16.445 18.25 16 18.25C15.4033 18.25 14.831 18.0129 14.409 17.591C13.9871 17.169 13.75 16.5967 13.75 16ZM9.75 9.5C9.74969 8.51369 10.0031 7.54388 10.4859 6.68379C10.9686 5.8237 11.6645 5.10225 12.5066 4.58879C13.3488 4.07534 14.3088 3.78713 15.2945 3.75188C16.2802 3.71662 17.2584 3.93551 18.135 4.3875L16.165 12.25H16C15.2786 12.2503 14.5725 12.4588 13.9666 12.8503C13.3606 13.2419 12.8805 13.7999 12.5838 14.4575C11.7192 13.9511 11.0026 13.2268 10.5053 12.3569C10.0081 11.487 9.74767 10.502 9.75 9.5ZM13.5 24.6625C12.6459 25.1571 11.6788 25.4235 10.6919 25.4361C9.705 25.4487 8.73147 25.207 7.86501 24.7343C6.99855 24.2617 6.26835 23.5739 5.74468 22.7373C5.22101 21.9007 4.92151 20.9434 4.875 19.9575L12.6738 17.73C12.9903 18.3388 13.4678 18.8491 14.0543 19.2052C14.6408 19.5614 15.3138 19.7498 16 19.75C16.1252 19.7502 16.2504 19.744 16.375 19.7313C16.3684 20.7328 16.0995 21.715 15.5951 22.5803C15.0907 23.4455 14.3683 24.1634 13.5 24.6625ZM26.8625 21.6925C26.4035 22.4872 25.7605 23.1602 24.9875 23.655L19.1588 18.015C19.563 17.3836 19.768 16.6453 19.7473 15.8959C19.7265 15.1465 19.481 14.4206 19.0425 13.8125C20.1401 13.191 21.4115 12.9476 22.6611 13.1198C23.9106 13.2921 25.0688 13.8704 25.9572 14.7657C26.8457 15.661 27.4152 16.8236 27.5778 18.0744C27.7405 19.3251 27.4874 20.5947 26.8575 21.6875L26.8625 21.6925Z" fill="#FA5A2A"/>
</svg>
