<svg width="32" height="32" viewBox="0 0 32 32" fill="none" xmlns="http://www.w3.org/2000/svg">
<path d="M2.66666 28H22.6667M28 28H29.3333" stroke="#FA5A2A" stroke-width="1.5" stroke-linecap="round" stroke-linejoin="round"/>
<path d="M2.66666 21.8667V4.8C2.66666 4.58783 2.75095 4.38434 2.90098 4.23431C3.05101 4.08429 3.25449 4 3.46666 4H28.5333C28.7455 4 28.949 4.08429 29.099 4.23431C29.249 4.38434 29.3333 4.58783 29.3333 4.8V21.8667C29.3333 22.0788 29.249 22.2823 29.099 22.4324C28.949 22.5824 28.7455 22.6667 28.5333 22.6667H3.46666C3.25449 22.6667 3.05101 22.5824 2.90098 22.4324C2.75095 22.2823 2.66666 22.0788 2.66666 21.8667Z" stroke="#FA5A2A" stroke-width="1.5"/>
</svg>
