<svg width="32" height="32" viewBox="0 0 32 32" fill="none" xmlns="http://www.w3.org/2000/svg">
<path d="M30.71 8.09125L24.2388 4.56125C24.1655 4.52123 24.0834 4.50017 24 4.5H20C19.8674 4.5 19.7402 4.55268 19.6464 4.64645C19.5527 4.74021 19.5 4.86739 19.5 5C19.5 5.92826 19.1313 6.8185 18.4749 7.47487C17.8185 8.13125 16.9283 8.5 16 8.5C15.0717 8.5 14.1815 8.13125 13.5251 7.47487C12.8687 6.8185 12.5 5.92826 12.5 5C12.5 4.86739 12.4473 4.74021 12.3536 4.64645C12.2598 4.55268 12.1326 4.5 12 4.5H8C7.91687 4.50076 7.83524 4.52225 7.7625 4.5625L1.29 8.09125C0.943993 8.27203 0.683851 8.58271 0.566674 8.9551C0.449497 9.32749 0.48486 9.73116 0.665 10.0775L3.075 14.6788C3.20737 14.9281 3.4055 15.1365 3.64789 15.2813C3.89027 15.426 4.16767 15.5017 4.45 15.5H7.5V26C7.5 26.3978 7.65804 26.7794 7.93934 27.0607C8.22064 27.342 8.60218 27.5 9 27.5H23C23.3978 27.5 23.7794 27.342 24.0607 27.0607C24.342 26.7794 24.5 26.3978 24.5 26V15.5H27.5413C27.8236 15.5017 28.101 15.426 28.3434 15.2813C28.5858 15.1365 28.7839 14.9281 28.9163 14.6788L31.3263 10.0775C31.5071 9.73222 31.5437 9.32938 31.4282 8.95714C31.3127 8.58489 31.0545 8.27355 30.71 8.09125ZM4.45875 14.5C4.35737 14.5025 4.25723 14.4772 4.16913 14.427C4.08103 14.3768 4.00829 14.3035 3.95875 14.215L1.555 9.61375C1.52596 9.5576 1.50845 9.49621 1.5035 9.4332C1.49855 9.37018 1.50627 9.30681 1.52619 9.24682C1.54611 9.18683 1.57783 9.13143 1.61949 9.08389C1.66114 9.03635 1.7119 8.99763 1.76875 8.97L7.5 5.8425V14.5H4.45875ZM23.5 26C23.5 26.1326 23.4473 26.2598 23.3536 26.3536C23.2598 26.4473 23.1326 26.5 23 26.5H9C8.86739 26.5 8.74021 26.4473 8.64645 26.3536C8.55268 26.2598 8.5 26.1326 8.5 26V5.5H11.5275C11.6497 6.6007 12.1736 7.61766 12.9988 8.35627C13.824 9.09488 14.8925 9.50327 16 9.50327C17.1075 9.50327 18.176 9.09488 19.0012 8.35627C19.8264 7.61766 20.3503 6.6007 20.4725 5.5H23.5V26ZM30.445 9.61375L28.0362 14.215C27.9867 14.3035 27.914 14.3768 27.8259 14.427C27.7378 14.4772 27.6376 14.5025 27.5362 14.5H24.5V5.8425L30.2313 8.9675C30.2884 8.99511 30.3395 9.03394 30.3814 9.08167C30.4232 9.1294 30.4551 9.18506 30.475 9.24535C30.495 9.30563 30.5026 9.36931 30.4974 9.4326C30.4923 9.49588 30.4744 9.55749 30.445 9.61375Z" fill="#FA5A2A"/>
</svg>
