<svg width="32" height="32" viewBox="0 0 32 32" fill="none" xmlns="http://www.w3.org/2000/svg">
<path d="M6.36 24H5.64L5.13333 21.3333H4V16.8133C4 16.2169 4.20978 15.7102 4.62933 15.2933C5.04889 14.8756 5.55733 14.6667 6.15467 14.6667H6.66667V11.4867C6.66667 10.8911 6.87644 10.3831 7.296 9.96266C7.71556 9.54311 8.224 9.33333 8.82133 9.33333H23.18C23.7756 9.33333 24.2836 9.54311 24.704 9.96266C25.1236 10.3822 25.3333 10.8902 25.3333 11.4867V14.6667H25.8467C26.4422 14.6667 26.9502 14.8764 27.3707 15.296C27.7902 15.7156 28 16.224 28 16.8213V21.3333H26.8667L26.36 24H25.64L25.1333 21.3333H6.86667L6.36 24ZM16.6667 14.6667H24V11.4867C24 11.2476 23.9231 11.0511 23.7693 10.8973C23.6156 10.7436 23.4191 10.6667 23.18 10.6667H16.6667V14.6667ZM8 14.6667H15.3333V10.6667H8.82133C8.58133 10.6667 8.38444 10.7436 8.23067 10.8973C8.07689 11.0511 8 11.2476 8 11.4867V14.6667ZM5.33333 20H26.6667V16.8213C26.6667 16.5813 26.5898 16.3844 26.436 16.2307C26.2822 16.0769 26.0858 16 25.8467 16H6.15333C5.91422 16 5.71778 16.0769 5.564 16.2307C5.41022 16.3844 5.33333 16.5813 5.33333 16.8213V20Z" fill="#FA5A2A"/>
</svg>
