<svg width="32" height="32" viewBox="0 0 32 32" fill="none" xmlns="http://www.w3.org/2000/svg">
<path d="M10.6667 16V10.6667C10.6667 9.25217 11.2286 7.89562 12.2288 6.89543C13.229 5.89523 14.5855 5.33333 16 5.33333C17.4145 5.33333 18.771 5.89523 19.7712 6.89543C20.7714 7.89562 21.3333 9.25217 21.3333 10.6667V16" stroke="#FA5A2A" stroke-width="1.33333" stroke-linecap="round"/>
<path d="M4.92534 16.8907C5.11867 14.5693 5.216 13.4093 5.98134 12.704C6.74667 11.9987 7.912 12 10.2413 12H21.76C24.088 12 25.2533 12 26.0187 12.704C26.784 13.408 26.8813 14.5693 27.0747 16.8907L27.76 25.112C27.872 26.4627 27.928 27.1387 27.5333 27.5693C27.136 28 26.4587 28 25.1013 28H6.89867C5.54267 28 4.864 28 4.468 27.5693C4.072 27.1387 4.128 26.4627 4.24134 25.112L4.92534 16.8907Z" stroke="#FA5A2A" stroke-width="1.33333"/>
</svg>
