<svg width="33" height="32" viewBox="0 0 33 32" fill="none" xmlns="http://www.w3.org/2000/svg">
<path d="M18.5 16C18.5 16.3956 18.3827 16.7822 18.1629 17.1111C17.9432 17.44 17.6308 17.6964 17.2654 17.8478C16.8999 17.9991 16.4978 18.0387 16.1098 17.9616C15.7219 17.8844 15.3655 17.6939 15.0858 17.4142C14.8061 17.1345 14.6156 16.7781 14.5384 16.3902C14.4613 16.0022 14.5009 15.6001 14.6522 15.2346C14.8036 14.8692 15.06 14.5568 15.3889 14.3371C15.7178 14.1173 16.1044 14 16.5 14C17.0304 14 17.5391 14.2107 17.9142 14.5858C18.2893 14.9609 18.5 15.4696 18.5 16ZM8 14C7.60444 14 7.21776 14.1173 6.88886 14.3371C6.55996 14.5568 6.30362 14.8692 6.15224 15.2346C6.00087 15.6001 5.96126 16.0022 6.03843 16.3902C6.1156 16.7781 6.30608 17.1345 6.58579 17.4142C6.86549 17.6939 7.22186 17.8844 7.60982 17.9616C7.99778 18.0387 8.39992 17.9991 8.76537 17.8478C9.13082 17.6964 9.44318 17.44 9.66294 17.1111C9.8827 16.7822 10 16.3956 10 16C10 15.4696 9.78929 14.9609 9.41421 14.5858C9.03914 14.2107 8.53043 14 8 14ZM25 14C24.6044 14 24.2178 14.1173 23.8889 14.3371C23.56 14.5568 23.3036 14.8692 23.1522 15.2346C23.0009 15.6001 22.9613 16.0022 23.0384 16.3902C23.1156 16.7781 23.3061 17.1345 23.5858 17.4142C23.8655 17.6939 24.2219 17.8844 24.6098 17.9616C24.9978 18.0387 25.3999 17.9991 25.7654 17.8478C26.1308 17.6964 26.4432 17.44 26.6629 17.1111C26.8827 16.7822 27 16.3956 27 16C27 15.4696 26.7893 14.9609 26.4142 14.5858C26.0391 14.2107 25.5304 14 25 14Z" fill="#FA5A2A"/>
</svg>
