<svg width="24" height="24" viewBox="0 0 24 24" fill="none" xmlns="http://www.w3.org/2000/svg">
<path d="M11.9027 5.98087C11.3093 5.98087 10.7293 6.15681 10.236 6.48646C9.74262 6.8161 9.35811 7.28464 9.13104 7.83282C8.90398 8.38099 8.84457 8.98419 8.96032 9.56614C9.07608 10.1481 9.3618 10.6826 9.78136 11.1022C10.2009 11.5217 10.7355 11.8075 11.3174 11.9232C11.8994 12.039 12.5026 11.9796 13.0507 11.7525C13.5989 11.5254 14.0674 11.1409 14.3971 10.6476C14.7267 10.1542 14.9027 9.57421 14.9027 8.98087C14.9018 8.18549 14.5854 7.42296 14.023 6.86055C13.4606 6.29813 12.6981 5.98177 11.9027 5.98087ZM11.9027 10.4809C11.606 10.4809 11.316 10.3929 11.0693 10.2281C10.8227 10.0632 10.6304 9.82898 10.5169 9.55489C10.4033 9.2808 10.3736 8.9792 10.4315 8.68823C10.4894 8.39726 10.6322 8.12998 10.842 7.92021C11.0518 7.71043 11.3191 7.56756 11.61 7.50969C11.901 7.45181 12.2026 7.48151 12.4767 7.59505C12.7508 7.70858 12.9851 7.90084 13.1499 8.14751C13.3147 8.39418 13.4027 8.68419 13.4027 8.98087C13.4022 9.37855 13.244 9.75981 12.9628 10.041C12.6816 10.3222 12.3004 10.4804 11.9027 10.4809Z" fill="#FA5A2A"/>
<path d="M17.6675 3.21164C16.2421 1.78666 14.3395 0.940164 12.3267 0.835526C10.3139 0.730889 8.33375 1.37553 6.76833 2.64503C5.20292 3.91453 4.16323 5.71889 3.84994 7.70987C3.53665 9.70086 3.97197 11.7373 5.07187 13.4262L10.7394 22.1268C10.8655 22.3204 11.038 22.4795 11.2411 22.5896C11.4442 22.6997 11.6716 22.7573 11.9027 22.7573C12.1338 22.7573 12.3612 22.6997 12.5643 22.5896C12.7674 22.4795 12.9399 22.3204 13.066 22.1268L18.7337 13.4262C19.7543 11.8595 20.2054 9.98962 20.0112 8.12992C19.8171 6.27023 18.9896 4.53378 17.6675 3.21164ZM17.4769 12.6075L11.9027 21.1645L6.32849 12.6075C4.62224 9.98812 4.9882 6.48281 7.19864 4.27228C7.81638 3.65452 8.54975 3.16448 9.35688 2.83015C10.164 2.49582 11.0291 2.32374 11.9027 2.32374C12.7764 2.32374 13.6414 2.49582 14.4486 2.83015C15.2557 3.16448 15.9891 3.65452 16.6068 4.27228C18.8173 6.48281 19.1832 9.98812 17.4769 12.6075Z" fill="#FA5A2A"/>
</svg>
